<?xml version="1.0" encoding="UTF-8" standalone="no"?>
<!-- Created with Inkscape (http://www.inkscape.org/) -->

<svg
   xmlns:dc="http://purl.org/dc/elements/1.1/"
   xmlns:cc="http://creativecommons.org/ns#"
   xmlns:rdf="http://www.w3.org/1999/02/22-rdf-syntax-ns#"
   xmlns:svg="http://www.w3.org/2000/svg"
   xmlns="http://www.w3.org/2000/svg"
   xmlns:sodipodi="http://sodipodi.sourceforge.net/DTD/sodipodi-0.dtd"
   xmlns:inkscape="http://www.inkscape.org/namespaces/inkscape"
   width="210mm"
   height="297mm"
   viewBox="0 0 744.09448819 1052.3622047"
   id="svg2"
   version="1.1"
   inkscape:version="0.91 r13725"
   sodipodi:docname="donate.svg"
   inkscape:export-filename="C:\Users\vinic\Desktop\AquaRipper\trunk\AquaRipper\media\donate.png"
   inkscape:export-xdpi="7.2987933"
   inkscape:export-ydpi="7.2987933">
  <defs
     id="defs4" />
  <sodipodi:namedview
     id="base"
     pagecolor="#ffffff"
     bordercolor="#666666"
     borderopacity="1.0"
     inkscape:pageopacity="0.0"
     inkscape:pageshadow="2"
     inkscape:zoom="1"
     inkscape:cx="233.29211"
     inkscape:cy="463.25277"
     inkscape:document-units="px"
     inkscape:current-layer="layer1"
     showgrid="false"
     inkscape:window-width="1920"
     inkscape:window-height="1017"
     inkscape:window-x="-8"
     inkscape:window-y="-8"
     inkscape:window-maximized="1" />
  <metadata
     id="metadata7">
    <rdf:RDF>
      <cc:Work
         rdf:about="">
        <dc:format>image/svg+xml</dc:format>
        <dc:type
           rdf:resource="http://purl.org/dc/dcmitype/StillImage" />
        <dc:title></dc:title>
      </cc:Work>
    </rdf:RDF>
  </metadata>
  <g
     inkscape:label="Layer 1"
     inkscape:groupmode="layer"
     id="layer1">
    <circle
       style="fill:#3e98af;fill-opacity:1;stroke:none;stroke-width:10.53100014;stroke-linecap:round;stroke-linejoin:round;stroke-miterlimit:4;stroke-dasharray:none"
       id="path4266"
       cx="376.60489"
       cy="530.3277"
       r="297.79898" />
    <path
       style="fill:#ffffff;stroke:none"
       id="path3406"
       ry="13.435029"
       rx="13.788583"
       cy="835.63397"
       cx="528.56232" />
    <path
       style="fill:none;fill-rule:evenodd;stroke:#f8acbf;stroke-width:10.53100014;stroke-linecap:round;stroke-linejoin:round;stroke-miterlimit:4;stroke-dasharray:none;stroke-opacity:1"
       d="m 205.60512,471.26656 c -6.5828,-5.2527 -17.8529,-9.06805 -18.0101,-19.03394 1.4503,-12.32051 14.3324,-10.51249 17.6734,-0.1813 2.9461,13.50552 -25.0493,19.54562 -32.6636,-3.11358"
       id="path3419"
       inkscape:connector-curvature="0"
       sodipodi:nodetypes="cccc" />
    <path
       style="fill:#f8acbf;fill-opacity:1;fill-rule:evenodd;stroke:none;stroke-width:1px;stroke-linecap:butt;stroke-linejoin:miter;stroke-opacity:1"
       d="m 291.30522,682.2854 -56.0715,0 c -14.1132,-19.218 -22.9075,-50.66986 -27.5,-91.78571 -41.9184,-42.28831 -25.0138,-144.06747 74.8215,-174.82143 l 17.1428,24.64286 c 33.7392,-14.04686 72.0647,-17.6107 119.1072,-1.25 l 13.9285,-23.57143 c 22.515,8.39707 40.2578,18.15764 49.4643,30.35714 14.5489,-17.23814 31.5302,-31.34894 59.2857,-31.60714 -13.4162,14.40476 -13.0842,28.80953 -13.5714,43.21429 26.6085,9.44711 46.2355,31.11169 61.4286,60.53571 l 31.7857,-0.53571 0,26.60714 c 3.5906,44.288 -112.5017,90.68602 -139.1071,92.67857 -4.2552,19.09461 -1.4468,35.89551 1.9642,45.71431 l -56.9642,-0.3572 c -6.6667,-6.2627 -13.3334,-17.8439 -20,-30.7143 -37.7999,2.5506 -75.6226,5.01 -117.1429,-7.3214 -2.4371,17.8074 0.3887,26.4571 1.4286,38.2143 z"
       id="path3404"
       inkscape:connector-curvature="0"
       sodipodi:nodetypes="ccccccccccccccccccc" />
    <path
       style="fill:#f8e58a;fill-opacity:1;stroke:none;stroke-width:10.53100014;stroke-linecap:round;stroke-linejoin:round;stroke-miterlimit:4;stroke-dasharray:none"
       d="m 363.12662,312.53453 a 64,64 0 0 0 -64,64 64,64 0 0 0 16.707,43.01562 c 27.3146,-8.16841 57.7701,-9.15729 93.2774,1.40039 a 64,64 0 0 0 18.0156,-44.41601 64,64 0 0 0 -64,-64 z"
       id="path4225"
       inkscape:connector-curvature="0" />
    <path
       style="font-style:normal;font-variant:normal;font-weight:bold;font-stretch:normal;font-size:58.5329895px;line-height:125%;font-family:Arial;-inkscape-font-specification:'Arial Bold';letter-spacing:0px;word-spacing:0px;fill:#e37e40;fill-opacity:1;stroke:none;stroke-width:1px;stroke-linecap:butt;stroke-linejoin:miter;stroke-opacity:1"
       d="m 359.12462,325.40562 0,5.6582 c -6.5544,0.64783 -11.8122,3.10502 -15.7753,7.37305 -3.9251,4.22992 -5.8887,9.47109 -5.8887,15.72071 0,6.1734 1.7353,11.43114 5.2031,15.77539 3.5059,4.30613 8.9919,7.52614 16.4609,9.66015 l 0,23.95117 c -2.0578,-0.99079 -3.9248,-2.5925 -5.6015,-4.80273 -1.6767,-2.21023 -2.82,-4.83813 -3.4297,-7.88672 l -14.918,1.59961 c 1.1433,7.50716 3.7711,13.31799 7.8867,17.43359 1.459,1.45896 3.0833,2.69986 4.8536,3.74219 9.2467,-0.67617 18.8592,-0.51593 28.8984,0.61914 3.1164,-1.47617 5.7782,-3.46 7.9766,-5.96094 4.1918,-4.72532 6.2871,-10.53615 6.2871,-17.43359 0,-6.1734 -1.6573,-11.22337 -4.9727,-15.14844 -3.3153,-3.96317 -9.5456,-7.18317 -18.6914,-9.66015 l 0,-22.34961 c 3.6964,1.60051 5.9829,4.64785 6.8594,9.14453 l 14.4609,-1.88477 c -0.9908,-5.71611 -3.2773,-10.27055 -6.8594,-13.66211 -3.5821,-3.42966 -8.4018,-5.50642 -14.4609,-6.23047 l 0,-5.6582 -8.2891,0 z m 0,18.11914 0,19.77735 c -2.4769,-1.06701 -4.3235,-2.45705 -5.5429,-4.17188 -1.2195,-1.75294 -1.8301,-3.64046 -1.8301,-5.66015 0,-2.21024 0.6662,-4.22944 2,-6.0586 1.3338,-1.82915 3.1247,-3.12457 5.373,-3.88672 z m 8.2891,38.52735 c 3.4297,0.99079 5.8869,2.41984 7.3731,4.28711 1.5243,1.82915 2.2871,4.01906 2.2871,6.57226 0,2.85806 -0.8945,5.35427 -2.6856,7.48828 -1.791,2.09591 -4.1165,3.41181 -6.9746,3.94532 l 0,-22.29297 z"
       id="text4221"
       inkscape:connector-curvature="0" />
    <circle
       style="fill:#b87f8e;stroke:none;stroke-width:10.53100014;stroke-linecap:round;stroke-linejoin:round;stroke-miterlimit:4;stroke-dasharray:none;fill-opacity:1"
       id="path4264"
       cx="535.36279"
       cy="506.38434"
       r="14.849242" />
  </g>
</svg>
